#!OML:ASF F:\VICON\USERDATA\INSTALL\rory3\rory3.ASF
:FULLY-SPECIFIED
:DEGREES
708
root -1.5065 16.7622 -3.82102 199.146 -44.5708 158.771
lowerback -23.9712 5.8495 2.53944
upperback -17.6124 3.8566 -2.29571
thorax -5.95237 0.213589 -3.07825
lowerneck -2.10704 22.1281 16.6583
upperneck 14.6516 32.5621 -18.2039
head 10.8122 14.6115 -4.02545
rclavicle -1.74931e-014 -3.33958e-014
rhumerus -53.4177 -22.3186 14.1271
rradius 38.5051
rwrist -46.9414
rhand -16.2694 9.55049
rfingers 7.12502
rthumb 9.94022 -20.1948
lclavicle -1.74931e-014 -3.33958e-014
lhumerus -12.3799 -20.4681 7.26284
lradius 37.654
lwrist -50.8433
lhand -32.1629 8.38512
lfingers 7.12502
lthumb -5.40605 38.2962
rfemur -34.0931 -10.2497 17.3079
rtibia 48.0665
rfoot -25.6465 -31.3422
rtoes 22.069
lfemur -11.1714 6.66195 -11.9731
ltibia 44.0219
lfoot -6.58663 33.2582
ltoes 27.5967
709
root -1.43636 16.7859 -3.71658 199.222 -47.1437 158.836
lowerback -24.0346 5.71886 1.6183
upperback -17.2097 4.05026 -2.35523
thorax -5.49149 0.490065 -2.58981
lowerneck -1.47931 22.4287 15.959
upperneck 14.6495 33.1521 -18.7073
head 10.7961 14.8192 -4.05271
rclavicle 7.15625e-014 2.62396e-014
rhumerus -54.9602 -22.2427 15.4485
rradius 35.3364
rwrist -38.7131
rhand -14.4498 8.25894
rfingers 7.12502
rthumb 11.6953 -21.3946
lclavicle 7.15625e-014 2.62396e-014
lhumerus -12.0449 -19.1848 7.76906
lradius 36.4433
lwrist -51.4243
lhand -31.3097 8.69615
lfingers 7.12502
lthumb -4.58215 38.6266
rfemur -33.4854 -9.5898 17.2218
rtibia 47.6688
rfoot -24.539 -31.1571
rtoes 21.2773
lfemur -10.7851 7.85729 -12.7389
ltibia 44.5351
lfoot -8.87437 34.2368
ltoes 27.584
710
root -1.36479 16.8205 -3.60619 199.24 -49.739 159.155
lowerback -23.9722 5.64686 1.31944
upperback -16.9741 4.16141 -2.68331
thorax -5.23504 0.620994 -2.76086
lowerneck -0.627075 22.787 16.56
upperneck 14.7144 33.9063 -19.4646
head 11.0877 15.163 -4.23128
rclavicle -5.1684e-014 -4.37326e-014
rhumerus -56.4361 -22.471 16.369
rradius 32.0846
rwrist -30.1005
rhand -12.3557 7.22151
rfingers 7.12502
rthumb 13.7142 -22.3066
lclavicle -5.1684e-014 -4.37326e-014
lhumerus -11.6936 -18.6616 7.25546
lradius 35.2705
lwrist -51.2058
lhand -30.5205 9.00671
lfingers 7.12502
lthumb -3.82008 38.9522
rfemur -32.9682 -8.76622 17.3053
rtibia 47.0623
rfoot -23.0624 -31.36
rtoes 20.5747
lfemur -10.5394 9.39784 -13.1167
ltibia 45.0944
lfoot -9.18577 35.1705
ltoes 26.9668
711
root -1.29554 16.8568 -3.48948 198.912 -52.2703 160.095
lowerback -24.5495 5.38257 0.620381
upperback -16.4706 4.12001 -2.27988
thorax -4.45743 0.771322 -1.91146
lowerneck -0.7539 23.1134 16.4266
upperneck 15.5975 34.6625 -19.859
head 11.6551 15.3564 -4.11731
rclavicle 7.31528e-014 8.74653e-015
rhumerus -57.1998 -23.2499 17.6458
rradius 28.9428
rwrist -22.0262
rhand -10.6783 6.02878
rfingers 7.12502
rthumb 15.3304 -23.383
lclavicle 7.31528e-014 8.74653e-015
lhumerus -11.819 -17.4542 7.44606
lradius 33.7204
lwrist -51.1449
lhand -30.2186 8.81234
lfingers 7.12502
lthumb -3.52859 38.7629
rfemur -32.6005 -7.92419 17.7294
rtibia 46.3161
rfoot -20.7221 -31.5255
rtoes 19.0416
lfemur -10.3959 10.866 -13.087
ltibia 45.6831
lfoot -9.10458 35.9012
ltoes 26.2724
712
root -1.22696 16.8934 -3.36534 198.953 -54.7988 160.73
lowerback -24.5952 5.5572 0.518003
upperback -16.3642 4.46609 -2.58643
thorax -4.28189 0.981112 -2.1137
lowerneck -1.12497 23.2915 15.1594
upperneck 16.5298 34.8817 -18.9342
head 11.663 15.3732 -3.64282
rclavicle 3.18055e-015 -2.46493e-014
rhumerus -58.7289 -23.1952 18.7598
rradius 26.3257
rwrist -15.5492
rhand -9.48825 4.8498
rfingers 7.12502
rthumb 16.4764 -24.4706
lclavicle 3.18055e-015 -2.46493e-014
lhumerus -11.3034 -15.2593 7.34314
lradius 31.8809
lwrist -52.4485
lhand -30.2866 8.39284
lfingers 7.12502
lthumb -3.59418 38.3423
rfemur -32.373 -6.77753 17.7456
rtibia 45.5735
rfoot -17.261 -31.9392
rtoes 12.4466
lfemur -10.3255 11.5952 -13.3938
ltibia 46.2515
lfoot -12.0391 35.9258
ltoes 28.8859
713
root -1.15936 16.9312 -3.21987 199.272 -57.4028 160.976
lowerback -24.73 5.77331 -0.0222733
upperback -15.9669 5.02048 -2.53199
thorax -3.78975 1.38297 -1.6239
lowerneck -1.45927 23.4684 12.5215
upperneck 16.7122 35.0477 -18.4435
head 11.2141 15.3031 -3.25056
rclavicle -6.95746e-014 -8.34896e-015
rhumerus -60.5227 -24.5917 22.3602
rradius 23.7435
rwrist -8.40972
rhand -7.95428 3.5768
rfingers 7.12502
rthumb 17.9528 -25.6146
lclavicle -6.95746e-014 -8.34896e-015
lhumerus -10.9755 -11.8652 8.76566
lradius 30.2575
lwrist -54.6263
lhand -29.9625 8.66915
lfingers 7.12502
lthumb -3.28126 38.6236
rfemur -32.1487 -5.90272 17.3898
rtibia 44.8798
rfoot -16.2155 -31.4343
rtoes 12.2167
lfemur -10.2603 11.7771 -14.078
ltibia 46.8009
lfoot -15.2009 35.6925
ltoes 31.1008
714
root -1.08062 16.9608 -3.0794 199.478 -60.0242 161.358
lowerback -24.7405 5.38157 -0.195482
upperback -15.967 4.61091 -2.92368
thorax -3.77978 1.19382 -2.03783
lowerneck -0.311667 23.8966 14.1583
upperneck 16.4931 35.8208 -19.0611
head 11.5191 15.7867 -3.48137
rclavicle -1.8487e-014 2.78299e-015
rhumerus -62.5943 -27.1846 25.5093
rradius 21.2739
rwrist 0.695823
rhand -5.8424 2.91596
rfingers 7.12502
rthumb 19.9838 -26.0765
lclavicle -1.8487e-014 2.78299e-015
lhumerus -11.72 -11.3862 7.51897
lradius 29.4327
lwrist -54.4613
lhand -28.8099 9.77822
lfingers 7.12502
lthumb -2.16812 39.7469
rfemur -32.026 -5.14568 17.1735
rtibia 44.2691
rfoot -17.9623 -30.1933
rtoes 19.1942
lfemur -10.3252 12.2422 -14.6136
ltibia 47.3129
lfoot -14.4534 36.3657
ltoes 27.8317
715
root -1.00262 16.9819 -2.96073 199.147 -62.6387 162.344
lowerback -24.5864 5.78195 -1.02886
upperback -16.0137 5.36365 -2.6916
thorax -3.99104 1.68985 -1.18257
lowerneck -0.260338 23.5663 11.7227
upperneck 17.4135 35.3174 -18.2535
head 11.1284 15.4367 -3.22753
rclavicle 9.98893e-014 2.22639e-014
rhumerus -64.9373 -27.0997 29.8962
rradius 19.8911
rwrist 5.55197
rhand -4.68851 1.86684
rfingers 7.12502
rthumb 21.0927 -27.0059
lclavicle 9.98893e-014 2.22639e-014
lhumerus -11.0342 -11.2284 9.21403
lradius 28.1464
lwrist -54.3299
lhand -28.3547 10.3119
lfingers 7.12502
lthumb -1.7285 40.2846
rfemur -31.8316 -3.98509 17.3095
rtibia 43.72
rfoot -18.0954 -29.43
rtoes 21.4401
lfemur -10.3908 13.2451 -14.5715
ltibia 47.7371
lfoot -10.1727 37.3556
ltoes 20.4832
716
root -0.945676 17.0072 -2.82252 199.068 -65.6748 163.078
lowerback -24.4071 6.16542 -0.172295
upperback -16.2304 5.7215 -4.49061
thorax -4.04048 1.71067 -3.54503
lowerneck 0.0663992 23.3002 14.7462
upperneck 18.1313 35.0333 -17.9192
head 11.7905 15.5363 -3.39813
rclavicle -4.96962e-014 -4.17448e-014
rhumerus -69.4216 -27.0064 32.4503
rradius 18.7926
rwrist 10.7511
rhand -4.4553 1.47351
rfingers 7.12502
rthumb 21.3167 -27.3741
lclavicle -4.96962e-014 -4.17448e-014
lhumerus -9.08649 -12.0605 6.54327
lradius 27.1158
lwrist -53.5277
lhand -28.4013 10.7041
lfingers 7.12502
lthumb -1.77352 40.6765
rfemur -31.4985 -3.72446 17.2693
rtibia 43.2058
rfoot -14.4314 -28.9054
rtoes 13.305
lfemur -10.3695 13.6979 -14.6473
ltibia 48.035
lfoot -11.6535 37.1064
ltoes 22.4997
